<?xml version="1.0" encoding="UTF-8"?>
<svg id="Logo" xmlns="http://www.w3.org/2000/svg" viewBox="0 0 631.8 217.03">
  <defs>
    <style>
      .cls-1 { fill: none; stroke-width: 0px; }
      .cls-2 { fill: #3b3e90; stroke-width: 0px; }
      .cls-3 { fill: #4d4d4d; stroke-width: 0px; }
    </style>
  </defs>
  <path id="Rahmen" class="cls-3" d="M0,167.07h631.8V0H0v167.07ZM11.14,11.14h609.53v144.8H11.14V11.14Z"/>
  <g id="IT_Security" data-name="IT Security">
    <path class="cls-1" d="M437.07,182.55h-12.39v7.95c1.97-.33,13.51.84,14.87-.89,1.96-1.92,1.23-7.55-2.48-7.06Z"/>
    <rect class="cls-3" x="21.36" y="176" width="7.52" height="33.72"/>
    <polygon class="cls-3" points="59.42 182.55 71.13 182.55 71.13 209.72 78.64 209.72 78.64 182.55 90.35 182.55 90.35 176 59.42 176 59.42 182.55"/>
    <path class="cls-3" d="M199.67,191.8c-3.61-3.28-11.13-1.95-15.67-2.22-3.54.55-5.36-4.19-2.8-6.26,1.3-1.54,18.41-.48,20.38-.77v-6.55c-5.57.69-21.71-1.83-26.18,2.14-3.93,3.59-3.94,12.15,0,15.75,3.62,3.27,11.09,1.99,15.63,2.24,3.54-.56,5.42,4.17,2.84,6.26-1.32,1.53-18.44.48-20.43.77v6.55c5.61-.64,21.68,1.79,26.21-2.17,3.98-3.56,3.94-12.13.01-15.75Z"/>
    <path class="cls-3" d="M242.87,176.89c-12.21,4.21-12.18,27.71,0,31.94,3.67,1.56,14.26.67,18.26.89v-6.55c-6.17-.47-19.09,2.66-19.46-7.03h19.46v-6.55h-19.46c.35-9.69,13.32-6.56,19.46-7.03v-6.55c-4.03.19-14.57-.63-18.26.89Z"/>
    <path class="cls-3" d="M302.22,176.89c-12.21,4.21-12.18,27.71,0,31.94,3.67,1.56,14.26.67,18.26.89v-6.55c-8.57-.26-20.47,2.77-19.65-10.31-.85-13.08,11.11-10.05,19.65-10.31v-6.55c-4.03.19-14.57-.63-18.26.89Z"/>
    <path class="cls-3" d="M376.55,195.66c1.18,8.73-12.13,11.38-15.28,3.93-1.26-2.28-.37-20.75-.62-23.58h-7.52c.55,12.79-4.55,35.7,15.46,34.4,19.95,1.26,14.95-21.65,15.46-34.4h-7.51v19.66Z"/>
    <path class="cls-3" d="M443.65,195.42c5.5-3.32,6.02-13.1,1.21-17.13-4.57-4.18-22.03-1.63-27.7-2.29v33.72h7.52v-12.67h8.09l6.94,12.67h8.72l-7.56-13.05c.97-.29,1.9-.71,2.79-1.25ZM439.55,189.61c-1.29,1.72-12.98.58-14.87.89v-7.95h12.39c3.71-.49,4.44,5.14,2.48,7.06Z"/>
    <rect class="cls-3" x="480.95" y="176" width="7.52" height="33.72"/>
    <polygon class="cls-3" points="519 182.55 530.71 182.55 530.71 209.72 538.22 209.72 538.22 182.55 549.93 182.55 549.93 176 519 176 519 182.55"/>
    <path class="cls-3" d="M597.45,182.12c-1.33,2.06-2.61,4.1-3.83,6.12l-7.71-12.24h-9.1l13.06,19.51v14.21h7.51v-14.21l13.06-19.51h-9.15c-1.22,2.02-2.5,4.06-3.83,6.12Z"/>
  </g>
  <g id="T-Alpha">
    <path class="cls-2" d="M528.73,41.59l-37.39,83.89h20.73l6.83-16.3h.05l-6.89,16.3,26.13-61.84c4.48,10.59,8.04,18.73,12.46,29.24h-.05l13.83,32.6h20.73l-37.39-83.89h-19.05Z"/>
    <path class="cls-2" d="M550.61,92.88l-12.41-29.24c2.24,5.27,12.41,29.24,12.41,29.24Z"/>
    <polygon class="cls-2" points="518.9 109.18 512.07 125.48 518.96 109.18 518.9 109.18"/>
    <path class="cls-2" d="M544.49,78.38c-1.96-4.55-4.06-9.47-6.29-14.74l12.41,29.24h.05c-2.16-5.11-4.21-9.95-6.17-14.5Z"/>
    <polygon class="cls-2" points="470.97 75.39 436.1 75.39 436.1 41.59 417.4 41.59 417.4 125.48 436.1 125.48 436.1 91.68 470.97 91.68 470.97 125.48 489.66 125.48 489.66 41.59 470.97 41.59 470.97 75.39"/>
    <path class="cls-2" d="M400.79,47.83c-11.54-11.15-53.94-4.56-68.47-6.23v83.89h18.69v-26.84c13.27-1.12,39.11,3.75,49.79-6.11,11.31-10.22,11.72-34.45-.01-44.7ZM389.78,75.69c-1.2,4.37-4.79,6.79-9.14,6.65,0,0-29.63,0-29.63,0v-24.45h29.63c9.19-.53,11.49,10.38,9.14,17.8Z"/>
    <path class="cls-2" d="M295.53,108.34c-7.95-1.73-12.36-8.35-12.1-16.66,0,0,0-50.09,0-50.09h-18.69c1.6,56.81-13.98,88.75,60.64,83.89v-16.3c-5.72-.22-24.61.66-29.84-.84Z"/>
    <path class="cls-2" d="M229.57,92.88l-12.41-29.24c2.24,5.27,12.41,29.24,12.41,29.24Z"/>
    <path class="cls-2" d="M207.69,41.59l-37.39,83.89h20.73l6.83-16.3h.05l-6.89,16.3,26.13-61.84c4.48,10.59,8.04,18.73,12.46,29.24h-.05l13.83,32.6h20.73l-37.39-83.89h-19.05Z"/>
    <polygon class="cls-2" points="197.86 109.18 191.03 125.48 197.92 109.18 197.86 109.18"/>
    <path class="cls-2" d="M223.45,78.38c-1.96-4.55-4.06-9.47-6.29-14.74l12.41,29.24h.05c-2.16-5.11-4.21-9.95-6.17-14.5Z"/>
    <rect class="cls-2" x="119.61" y="81.74" width="48.89" height="15.22"/>
    <polygon class="cls-2" points="123.56 41.59 46.63 41.59 46.63 57.89 75.75 57.89 75.75 125.48 94.44 125.48 94.44 57.89 123.56 57.89 123.56 41.59"/>
  </g>
</svg>
